<svg width="1097" height="1165" viewBox="0 0 1097 1165" fill="none" xmlns="http://www.w3.org/2000/svg">
<path d="M548.5 0L557.822 407.247C559.047 460.787 623.978 486.599 661.627 448.513L936.348 170.61L666.603 471.35C632.055 509.868 658.479 571.179 710.204 572.515L1097 582.5L710.204 592.485C658.479 593.821 632.055 655.132 666.603 693.65L936.348 994.39L661.627 716.487C623.977 678.401 559.047 704.213 557.822 757.753L548.5 1165L539.178 757.753C537.953 704.213 473.022 678.401 435.373 716.487L160.652 994.39L430.397 693.65C464.945 655.132 438.521 593.821 386.796 592.485L0 582.5L386.796 572.515C438.521 571.179 464.945 509.868 430.397 471.35L160.652 170.61L435.373 448.513C473.023 486.599 537.953 460.787 539.178 407.247L548.5 0Z" fill="#D9D9D9"/>
</svg>
